<svg id="Layer_2" data-name="Layer 2" xmlns="http://www.w3.org/2000/svg" viewBox="0 0 106 105"><defs><style>.cls-1{fill:none;stroke:#f5f5f5;stroke-linecap:round;stroke-linejoin:round;stroke-width:5px;}</style></defs><title>myInsigniaXML</title><path class="cls-1" d="M52.64,90.59L52.5,15.47C63.14,16,71.59,18.68,79.08,25.63c8.28,8.32,12,16.6,12,27.83A38.92,38.92,0,0,1,89,65.89L64.39,66l23.35,22.5c-10.24,9.77-22,14.15-35.23,14-14.43-.5-26.24-5.42-35.26-14.67C7.54,77,2.17,65.33,2.52,52.49,2.43,39.72,7.79,28.38,16.78,17.15L39.47,40l0-36A58.51,58.51,0,0,1,52.14,2.5c13.52-.07,25.64,5.34,35.71,14.62,10.63,11.19,15.65,19.72,15.65,35.3a43.38,43.38,0,0,1-2.13,14.21"/></svg>